<?xml version="1.0" encoding="utf-8"?>
<!-- Generator: Adobe Illustrator 25.0.1, SVG Export Plug-In . SVG Version: 6.00 Build 0)  -->
<svg version="1.1" xmlns="http://www.w3.org/2000/svg" xmlns:xlink="http://www.w3.org/1999/xlink" x="0px" y="0px"
	 viewBox="0 0 512 512" style="enable-background:new 0 0 512 512;" xml:space="preserve">
<style type="text/css">
	.st0{fill:#0A101A;}
	.st1{fill:none;}
</style>
<g id="Layer_1">
</g>
<g id="Outline_Icons">
	<path class="st0" d="M484.5,52.7c-4.8-4.7-11.1-7.3-17.8-7.3c-0.1,0-0.1,0-0.2,0c-49.2,0.4-97.9,6.4-137.2,16.9
		c-33.2,8.8-57.7,20.1-73.3,33.5c-15.6-13.4-40.1-24.7-73.3-33.5c-39.3-10.5-88-16.5-137.2-16.9c-0.1,0-0.1,0-0.2,0
		c-6.7,0-13,2.6-17.8,7.3c-4.8,4.8-7.5,11.2-7.5,18V384c0,13.8,11.3,25.2,25.1,25.3c45.9,0.4,91.1,5.9,127.3,15.5
		c37.7,10.1,57,22.3,62.4,30.5c4.7,7.1,12.6,11.3,21.1,11.3c8.5,0,16.4-4.2,21.1-11.3c5.4-8.1,24.7-20.4,62.4-30.5
		c36.2-9.6,81.4-15.2,127.3-15.5c13.9-0.1,25.1-11.5,25.1-25.3V70.7C492,63.9,489.3,57.5,484.5,52.7z M244,109.1
		C244,109.1,244,109.1,244,109.1C244,109.1,244,109.1,244,109.1C244,109.1,244,109.1,244,109.1z M182.7,386.3
		c-35.5-9.5-78.6-15.3-122.8-16.6V85.5c40.8,1.3,80.3,6.6,112.6,15.2c37.7,10.1,57,22.3,62.4,30.5c0.4,0.6,0.8,1.2,1.3,1.7
		c0,0.4-0.1,0.7-0.1,1.1v272.4C222,398.8,204.1,392.1,182.7,386.3z M452.1,369.7c-44.2,1.3-87.4,7.1-122.9,16.6
		c-21.4,5.7-39.2,12.4-53.4,20.1V134c0-0.4,0-0.7-0.1-1.1c0.4-0.6,0.9-1.1,1.3-1.7c5.4-8.1,24.7-20.4,62.4-30.5
		c32.3-8.6,71.8-13.9,112.6-15.2V369.7z M206.9,189c-1.3,0-2.6-0.2-3.9-0.7c-31.2-11.9-75.4-20.3-124.5-23.7
		c-6.1-0.4-10.6-5.7-10.2-11.7c0.4-6.1,5.7-10.6,11.7-10.2c51.2,3.5,97.7,12.4,130.9,25.1c5.7,2.2,8.5,8.5,6.3,14.2
		C215.5,186.3,211.3,189,206.9,189z M206.9,247.9c-1.3,0-2.6-0.2-3.9-0.7c-31.2-11.9-75.4-20.3-124.5-23.7
		c-6.1-0.4-10.6-5.7-10.2-11.7c0.4-6.1,5.7-10.6,11.7-10.2c51.2,3.5,97.7,12.4,130.9,25.1c5.7,2.2,8.5,8.5,6.3,14.2
		C215.5,245.2,211.3,247.9,206.9,247.9z M206.9,306.9c-1.3,0-2.6-0.2-3.9-0.7c-31.2-11.9-75.4-20.3-124.5-23.7
		c-6.1-0.4-10.6-5.7-10.2-11.7c0.4-6.1,5.7-10.6,11.7-10.2c51.2,3.5,97.7,12.4,130.9,25.1c5.7,2.2,8.5,8.5,6.3,14.2
		C215.5,304.2,211.3,306.9,206.9,306.9z M206.9,365.8c-1.3,0-2.6-0.2-3.9-0.7c-31.2-11.9-75.4-20.3-124.5-23.7
		c-6.1-0.4-10.6-5.7-10.2-11.7c0.4-6.1,5.7-10.7,11.7-10.2c51.2,3.5,97.7,12.4,130.9,25.1c5.7,2.2,8.5,8.5,6.3,14.2
		C215.5,363.1,211.3,365.8,206.9,365.8z M305.1,189c-4.4,0-8.6-2.7-10.3-7.1c-2.2-5.7,0.7-12,6.3-14.2
		c33.1-12.7,79.6-21.6,130.9-25.1c6-0.4,11.3,4.2,11.7,10.2c0.4,6.1-4.2,11.3-10.2,11.7c-49.1,3.3-93.3,11.7-124.5,23.7
		C307.7,188.8,306.4,189,305.1,189z M305.1,247.9c-4.4,0-8.6-2.7-10.3-7.1c-2.2-5.7,0.7-12,6.3-14.2c33.1-12.7,79.6-21.6,130.9-25.1
		c6-0.4,11.3,4.2,11.7,10.2c0.4,6.1-4.2,11.3-10.2,11.7c-49.1,3.3-93.3,11.7-124.5,23.7C307.7,247.7,306.4,247.9,305.1,247.9z
		 M305.1,306.9c-4.4,0-8.6-2.7-10.3-7.1c-2.2-5.7,0.7-12,6.3-14.2c33.1-12.7,79.6-21.6,130.9-25.1c6-0.4,11.3,4.2,11.7,10.2
		s-4.2,11.3-10.2,11.7c-49.1,3.3-93.3,11.7-124.5,23.7C307.7,306.6,306.4,306.9,305.1,306.9z M305.1,365.8c-4.4,0-8.6-2.7-10.3-7.1
		c-2.2-5.7,0.7-12,6.3-14.2c33.1-12.7,79.6-21.6,130.9-25.1c6-0.4,11.3,4.2,11.7,10.2c0.4,6.1-4.2,11.3-10.2,11.7
		c-49.1,3.3-93.3,11.7-124.5,23.7C307.7,365.5,306.4,365.8,305.1,365.8z"/>
	<rect y="0" class="st1" width="512" height="512"/>
</g>
</svg>
