<?xml version="1.0" encoding="utf-8"?>
<!-- Generator: Adobe Illustrator 25.0.1, SVG Export Plug-In . SVG Version: 6.00 Build 0)  -->
<svg version="1.1" id="Layer_1" xmlns="http://www.w3.org/2000/svg" xmlns:xlink="http://www.w3.org/1999/xlink" x="0px" y="0px"
	 viewBox="0 0 512 512" style="enable-background:new 0 0 512 512;" xml:space="preserve">
<style type="text/css">
	.st0{fill:#0A101A;}
	.st1{fill:none;}
</style>
<path class="st0" d="M407.4,427.3H104.6c-47.2,0-85.6-38.4-85.6-85.6V170.3c0-47.2,38.4-85.6,85.6-85.6h302.9
	c47.2,0,85.6,38.4,85.6,85.6v171.3C493,388.9,454.6,427.3,407.4,427.3z M104.6,126.7c-24,0-43.6,19.6-43.6,43.6v171.3
	c0,24,19.5,43.6,43.6,43.6h302.9c24,0,43.6-19.6,43.6-43.6V170.3c0-24-19.5-43.6-43.6-43.6H104.6z M209,341c-1.8,0-3.6-0.4-5.3-1.4
	c-3.5-1.9-5.7-5.6-5.7-9.6V167.3c0-4,2.2-7.7,5.7-9.6s7.8-1.8,11.2,0.4l127.1,81.3c3.2,2,5.1,5.5,5.1,9.3c0,3.8-1.9,7.2-5.1,9.3
	L215,339.3C213.2,340.4,211.1,341,209,341z M220,187.4v122.5l95.7-61.2L220,187.4z"/>
<rect y="0" class="st1" width="512" height="512"/>
</svg>
