<svg xmlns="http://www.w3.org/2000/svg" viewBox="0 0 220 220">
  <defs>
    <style>
      .a {
        fill: #fff;
      }
    </style>
  </defs>
  <title>Artboard 1</title>
  <path class="a" d="M106.47123,169.3385a121.94714,121.94714,0,0,0-30.76412-10.49236,10.67686,10.67686,0,0,1-8.6258-12.12516l13.124-87.20119a127.84328,127.84328,0,0,0-13.202-.0803,1.64174,1.64174,0,0,0-1.53059,1.3994L49.40616,167.59151a1.64126,1.64126,0,0,0,1.662,1.88984c9.94055-.24421,55.318-.29558,79.31241,17.86957C124.42091,180.41707,116.43865,174.38592,106.47123,169.3385ZM154.36943,195s7.02781-46.19032,15.42632-102.46332c7.52814-50.44117-39.20078-64.96463-48.96711-67.43315a1.643,1.643,0,0,0-2.02854,1.35189l-10.53347,70.199a20.9127,20.9127,0,0,0-.26454,3.0966c-.00166,12.12167,10.60672,14.4381,15.85382,14.84247a1.63933,1.63933,0,0,1,1.27962,2.486c-3.36874,5.55448-10.26923,19.48528-2.02621,29.51318C123.10932,146.59273,150.71232,171.52124,154.36943,195Zm-37.33775-41.67766a9.09159,9.09159,0,0,1-.92732-.97158c-6.7396-8.19912-7.77123-19.20027-3.15584-31.07479-8.84235-3.71548-14.0156-11.38589-14.01411-21.52485a29.43937,29.43937,0,0,1,.36491-4.44226l8.15222-54.32943a98.42916,98.42916,0,0,0-13.65448-1.3216,1.63847,1.63847,0,0,0-1.64349,1.40152L76.04808,148.07055a1.64626,1.64626,0,0,0,1.32729,1.86266c8.45454,1.58311,48.90906,10.60509,66.64106,40.94072C138.86659,175.59237,123.28158,158.98575,117.03168,153.32234Z"/>
</svg>
