<?xml version="1.0" encoding="utf-8"?>
<!-- Generator: Adobe Illustrator 25.1.0, SVG Export Plug-In . SVG Version: 6.00 Build 0)  -->
<svg version="1.1" id="Layer_1" xmlns="http://www.w3.org/2000/svg" xmlns:xlink="http://www.w3.org/1999/xlink" x="0px" y="0px"
	 viewBox="0 0 480 322" style="enable-background:new 0 0 480 322;" xml:space="preserve">
<style type="text/css">
	.st0{fill:#FFFFFF;}
	.st1{fill:#FFB549;}
	.st2{fill:#D9D9D6;}
	.st3{fill:#9CDBD9;}
	.st4{fill:#D0D0CE;}
	.st5{fill:#97999B;}
</style>
<g>
	<path class="st0" d="M480.1264954,163.4562836V0H322.7731628h-9.1958618H78.8469925H61.1909142h-61.336956v157.2623596
		c-0.2141102,14.1909332,1.8879621,28.5602417,6.2743673,42.4982147
		c6.079772,19.3866272,16.0963745,37.3416901,29.7743874,53.3703156
		c12.3922501,14.6235657,27.3633919,27.0158081,44.496624,36.8291626l0.6671829,0.3814697l5.4582443,2.9441528l0.6833878,0.3460999
		c1.6171494,0.820343,3.209259,1.5744324,4.8146286,2.3226318l1.8424835,0.8512878
		c0.5169601,0.2312317,1.0295029,0.4801331,1.542038,0.7246094c2.2799149,1.0825195,5.3610382,2.5465088,9.1594238,4.0178528
		l9.3685608,3.7453613l9.9370728,3.3638916l1.4477768,0.4698181c13.990242,4.3448181,28.8332596,7.6203613,44.1166306,9.7338257
		l0.842453,0.1104736c11.8591003,1.471344,23.9847565,2.2180481,36.038269,2.2180481
		c17.1420593,0,34.4505615-1.5007935,51.1463776-4.4096069c26.3677673-4.4567261,53.0728149-12.3510132,79.3728333-23.4663086
		l0.3681946-0.1561279c25.0260315-10.7721558,48.6367188-23.8580933,70.2546692-38.9500122
		c20.5383606-14.3864441,38.9028625-29.954071,54.5750732-46.2595825
		c11.9273987-12.4038544,18.1625366-28.005722,18.1260986-43.8388367
		C480.1601868,163.8916779,480.129425,163.6737061,480.1264954,163.4562836z"/>
	<g>
		<g>
			<path class="st1" d="M194.8620911,191.450592c-0.484314-0.360672-0.8758698-1.0536346-0.8758698-1.7775574
				c0-1.2339325,0.9686432-2.2283325,2.2077332-2.2283325c0.5770569,0,0.9377136,0.1519623,1.3911438,0.4842834
				c0.9402618,0.6904144,1.7595062,1.0510864,2.8182831,1.0510864c1.8135986,0,2.905899-1.0510864,2.905899-3.4906769v-11.445816
				c0-1.2932281,1.0278931-2.318512,2.3288269-2.318512c1.3009644,0,2.3314056,1.0252838,2.3314056,2.318512v11.65448
				c0,2.5014496-0.7264709,4.3665771-1.9990997,5.6314545c-1.3009186,1.2958221-3.2072754,1.9578552-5.5077972,1.9578552
				C198.0410767,193.2873688,196.1939545,192.4733276,194.8620911,191.450592"/>
			<path class="st1" d="M219.6556702,183.9524689v-9.9078369c0-1.2958069,1.0304718-2.3185425,2.3314056-2.3185425
				c1.3009644,0,2.3288574,1.0227356,2.3288574,2.3185425v9.7867584c0,3.4339905,1.7259979,5.2089691,4.5726318,5.2089691
				c2.8440704,0,4.5700836-1.7157135,4.5700836-5.0569611v-9.9387665c0-1.2958069,1.0304871-2.3185425,2.3314056-2.3185425
				c1.3009644,0,2.3314056,1.0227356,2.3314056,2.3185425v9.7558289c0,6.386261-3.6039886,9.5162659-9.2947235,9.5162659
				C223.1360321,193.3167267,219.6556702,190.155838,219.6556702,183.9524689"/>
			<path class="st1" d="M250.1410065,174.1048889c0-1.2957764,1.0304413-2.318512,2.3314056-2.318512h0.4843292
				c1.1206055,0,1.7878418,0.5409698,2.4215393,1.3550568l8.9907379,11.7446136v-10.8713226
				c0-1.2648773,1.0304565-2.2876129,2.3005371-2.2876129c1.2700195,0,2.3004456,1.0227356,2.3004456,2.2876129v16.7732697
				c0,1.2958221-1.030426,2.3185577-2.3313904,2.3185577h-0.1519775c-1.118042,0-1.7852783-0.5410156-2.4215698-1.3550568
				l-9.3204803-12.1645508v11.2912292c0,1.2648773-1.0304871,2.2902069-2.3031158,2.2902069
				c-1.2700195,0-2.3004608-1.0253296-2.3004608-2.2902069V174.1048889z"/>
			<path class="st1" d="M281.5364685,174.0443573c0-1.2958069,1.030426-2.318512,2.3313904-2.318512
				s2.3288574,1.0227051,2.3288574,2.318512v16.8041687c0,1.2958221-1.0278931,2.3185577-2.3288574,2.3185577
				s-2.3313904-1.0227356-2.3313904-2.3185577V174.0443573z"/>
			<path class="st1" d="M314.8634949,182.5070038v-0.0592346c0-3.6143341-2.6637268-6.6258698-6.4171448-6.6258698
				c-3.7534485,0-6.3579407,2.949707-6.3579407,6.5640259v0.0618439c0,3.6117249,2.6663208,6.6232605,6.4197693,6.6232605
				S314.8634949,186.1213379,314.8634949,182.5070038 M297.2169189,182.5070038v-0.0592346
				c0-5.9947205,4.7504272-10.9022675,11.2912598-10.9022675c6.5382385,0,11.2293701,4.8483124,11.2293701,10.8404236v0.0618439
				c0,5.9920807-4.7529602,10.8996277-11.2911987,10.8996277S297.2169189,188.499115,297.2169189,182.5070038"/>
			<path class="st1" d="M338.1167908,182.1470947c2.2695923,0,3.5705566-1.2056122,3.5705566-2.9831543V179.10466
				c0-1.9887543-1.3911133-3.0114899-3.663269-3.0114899h-4.6293335v6.0539246H338.1167908z M328.7319336,174.2254486
				c0-1.2957764,1.0304565-2.318512,2.3314209-2.318512h7.3548584c2.6946716,0,4.783905,0.7522125,6.1750183,2.1382141
				c1.1798706,1.1746979,1.8161926,2.8311768,1.8161926,4.8173676v0.0618439c0,3.3103485-1.6642151,5.3583832-4.235199,6.4146118
				l3.2382202,3.913147c0.4533691,0.5718994,0.7547913,1.0536346,0.7547913,1.7775421
				c0,1.2932281-1.0896912,2.1381683-2.2103271,2.1381683c-1.0561829,0-1.7543335-0.512619-2.2979126-1.2055969l-4.541748-5.7216339
				h-3.7225037v4.6087189c0,1.2932129-1.0278931,2.318512-2.3313904,2.318512c-1.3009644,0-2.3314209-1.0252991-2.3314209-2.318512
				V174.2254486z"/>
		</g>
		<path class="st2" d="M138.8121796,79.57061c-9.6036224,5.7182007-19.2561646,11.2920837-27.9731369,17.795845
			c-8.691246,6.49823-16.5706711,13.790863-22.3369751,22.3450623c-5.9289093,8.3766479-9.6602859,17.8161011-10.6972504,27.3763885
			c-1.0539551,9.5701904,0.5431137,19.2233734,4.2074051,28.157959
			c7.3714447,17.9216156,22.2794647,32.7959747,39.5751877,41.7528076l3.2928467,1.5902557l3.5598679,1.5376282
			c2.3999786,0.9894257,4.7178955,2.1645813,7.1763916,3.0101929l7.2998199,2.7007904l7.4422455,2.2960358
			c9.969162,2.9070282,20.1744232,5.0628052,30.5315094,6.3893738c41.5430298,5.251358,84.6281586-1.5194702,125.5656891-15.012146
			c39.0889893-12.9867401,76.4918518-31.8986053,111.8699036-55.2810516
			c1.7830811-1.1784973,1.9545288,0.1046143,0.223999,1.9051208c-13.7837524,14.3411865-29.2659302,27.1495819-45.700592,38.6628418
			c-18.5339661,12.9389191-38.5259399,23.922348-59.4955444,32.9480438
			c-21.0220642,8.8844452-43.1130371,15.6924286-65.9425049,19.5514221
			c-22.7935028,3.9696045-46.3722534,4.7015991-69.7063446,1.8071899
			c-11.6446075-1.6113586-23.2100067-4.0852509-34.491745-7.5891266l-8.3931122-2.8416595l-8.2325363-3.2909546
			c-2.7621765-1.048111-5.3854523-2.4352417-8.0802002-3.6409912c-1.3438416-0.6315308-2.6675034-1.229126-4.0147018-1.9125977
			l-4.1092072-2.2174988c-10.789566-6.1800842-20.5122299-14.0899048-28.5132294-23.5478516
			c-8.0389938-9.3996582-14.4160156-20.3561096-18.1803513-32.3553314
			c-3.7611389-11.9529419-4.6874695-25.0841064-1.8679581-37.408905
			c2.7228241-12.3508453,9.0808411-23.5183868,17.283783-32.2250977
			c8.2120209-8.7343369,17.9419174-15.4949188,28.1685257-20.5381241
			C117.5089798,86.4481506,128.1103821,82.7817001,138.8121796,79.57061z"/>
		<g>
			<g>
				<g>
					<path class="st3" d="M183.5342255,178.0098877c0,4.5618134-0.6279144,10.3819733-1.886261,14.6285706
						c-25.3232422-1.7299042-53.4809113-2.2039948-65.9054871-4.7206726l-3.7750397-0.6279144l1.4146957-12.8986664
						c2.3603439-21.5482025,4.0902481-36.963562,4.5618134-46.3998871l3.5505981-77.4449463
						c4.4029465-1.2583427,7.2348557-1.5735588,9.4363327-1.5735588c2.5166931,0,5.9765015,0.6279106,10.3819733,2.0451241
						l-0.3152161,7.7064171c0,1.1019974,0,2.2014732-0.1563568,3.459816l-3.0790253,66.7502823
						c-0.4715729,9.1236267-1.2583466,17.9233093-3.6186981,39.6303864
						c15.5717163,0.9431305,30.3566284,1.7299194,49.3906708,3.3034821
						C183.690567,173.1266632,183.5342255,176.2799835,183.5342255,178.0098877z"/>
				</g>
			</g>
			<g>
				<path class="st3" d="M206.2197418,157.2622681c-0.9431305-6.6069336-2.6730347-15.571701-3.3009491-19.5056
					c-5.9790344,9.4388428-15.8869171,13.370224-24.0674286,13.370224c-14.9412689,0-22.3349915-9.5951843-22.3349915-29.0982742
					c0-9.4388504,1.886261-26.7404556,3.1471252-42.6273804c8.021637,0,14.4697113,0.7867813,19.1878662,2.0451279
					c-1.099472,16.6736984-2.0451202,30.0439301-2.0451202,35.3925247c0,10.0667572,1.8887787,14.7849197,6.7632904,15.2564926
					c9.7540588-3.1471252,12.8986664-6.2917328,15.2590027-18.4036179c1.2583466-6.919632,1.4146881-21.707077,1.5735626-26.1100235
					c3.7750397-0.6304321,7.5500641-1.2583466,9.5951996-1.2583466c2.5166779,0,5.6612854,0.7867813,9.7515411,2.2014771
					c-0.1588745,1.8862534-0.3152161,5.9765091-0.3152161,7.8652878c0,16.3584824,1.4146881,37.4351273,5.348587,57.4123001
					C220.6919708,155.6887054,217.5473633,156.7907104,206.2197418,157.2622681z"/>
				<path class="st3" d="M247.7526855,162.6108704c-1.8887787,0-3.7750397-0.1588745-5.1922455-0.4715729
					c-0.1563568-1.5735474,0-6.6069336,0.1588593-13.0575256c0.1563568-7.5500641,0-33.9753113-0.6304321-61.3436813
					c-0.6279144-22.9654236-1.5735626-29.7841911-2.9882507-42.9980736c0-2.9882545-0.9431305-6.6069412-1.7299042-8.9647598
					c4.4029388-1.7324295,8.4931946-2.3603439,13.2113495-2.3603439c0.3152161,0,7.2373657,0.6279144,10.6972046,3.1446037
					c-0.3152161,3.6186867-0.6304321,7.0785027-0.7867737,10.2256279c-0.4715881,9.595192-0.4715881,15.9423943,0,40.7965965
					c0.3152161,21.5482101,0.9431152,44.6699829,1.7298889,61.8152466c0.3152161,5.033371,0.7867737,8.9647675,1.1019897,11.4814453
					C260.8077087,161.6652222,253.5728455,162.6108704,247.7526855,162.6108704z"/>
				<path class="st3" d="M324.7714539,157.2622681c-0.9431152-6.6069336-2.6730347-15.571701-3.3009338-19.5056
					c-5.9790344,9.4388428-15.8869324,13.370224-24.0674438,13.370224c-14.9412537,0-22.3349915-9.5951843-22.3349915-29.0982742
					c0-9.4388504,1.886261-26.7404556,3.1471252-42.6273804c8.021637,0,14.4697266,0.7867813,19.1878662,2.0451279
					c-1.0994568,16.6736984-2.045105,30.0439301-2.045105,35.3925247c0,10.0667572,1.8887634,14.7849197,6.7632751,15.2564926
					c9.7540588-3.1471252,12.8986816-6.2917328,15.2590027-18.4036179c1.2583618-6.919632,1.4147034-21.707077,1.5735779-26.1100235
					c3.7750244-0.6304321,7.5500488-1.2583466,9.5951843-1.2583466c2.5166931,0,5.6612854,0.7867813,9.7515564,2.2014771
					c-0.1588745,1.8862534-0.3152161,5.9765091-0.3152161,7.8652878c0,16.3584824,1.4146729,37.4351273,5.3485718,57.4123001
					C339.2436829,155.6887054,336.0990906,156.7907104,324.7714539,157.2622681z"/>
			</g>
		</g>
		<path class="st4" d="M426.1161499,155.1292267l-29.6516418,62.3358612
			c-0.1640015,0.3448181-0.62854,0.4068298-0.8772888,0.1171112l-36.4555359-42.4658203
			c-0.2487183-0.2897186-0.1170959-0.7395172,0.2485962-0.8494263l66.1071777-19.8700562
			C425.9259338,154.2651062,426.3128052,154.7157745,426.1161499,155.1292267z"/>
		<polygon class="st5" points="385.072937,205.3344574 422.1266785,156.8875275 369.6127014,187.3253632 		"/>
	</g>
</g>
</svg>
