<?xml version="1.0" encoding="utf-8"?>
<!-- Generator: Adobe Illustrator 25.1.0, SVG Export Plug-In . SVG Version: 6.00 Build 0)  -->
<svg version="1.1" id="Layer_1" xmlns="http://www.w3.org/2000/svg" xmlns:xlink="http://www.w3.org/1999/xlink" x="0px" y="0px"
	 viewBox="0 0 620 380" style="enable-background:new 0 0 620 380;" xml:space="preserve">
<style type="text/css">
	.st0{fill:#FFB549;}
	.st1{fill:#D9D9D6;}
	.st2{fill:#9CDBD9;}
	.st3{fill:#D0D0CE;}
	.st4{fill:#97999B;}
</style>
<g>
	<g>
		<path class="st0" d="M263.1904907,250.4263611c-0.6604614-0.491806-1.194397-1.4367981-1.194397-2.4239655
			c0-1.6826782,1.3208923-3.0386963,3.0106201-3.0386963c0.7868958,0,1.278717,0.2072296,1.8970337,0.6604004
			c1.282196,0.9414978,2.399353,1.4333191,3.8432007,1.4333191c2.473114,0,3.9626465-1.4333191,3.9626465-4.7600861v-15.6082306
			c0-1.7635193,1.4017029-3.1616669,3.1757202-3.1616669c1.7740784,0,3.1792603,1.3981476,3.1792603,3.1616669v15.8927612
			c0,3.4111328-0.9906616,5.9545441-2.7261047,7.6793976c-1.7740173,1.7670593-4.3736267,2.6698608-7.5107422,2.6698608
			C267.5255432,252.9311218,265.0067139,251.8210297,263.1904907,250.4263611"/>
		<path class="st0" d="M297.0005188,240.2014771v-13.5109253c0-1.7670593,1.4052429-3.1617279,3.1792603-3.1617279
			c1.7740784,0,3.1757812,1.3946686,3.1757812,3.1617279v13.3458252c0,4.682785,2.3536682,7.1032715,6.2355042,7.1032715
			c3.8783569,0,6.2320557-2.3396606,6.2320557-6.8959961v-13.5531006c0-1.7670593,1.4052429-3.1617279,3.1792603-3.1617279
			c1.7740784,0,3.1792297,1.3946686,3.1792297,3.1617279v13.3036346c0,8.7087097-4.9146118,12.9769745-12.6748352,12.9769745
			C301.746582,252.9711609,297.0005188,248.6607666,297.0005188,240.2014771"/>
		<path class="st0" d="M338.5722046,226.7727203c0-1.7669983,1.4051819-3.1616669,3.1792603-3.1616669h0.6604309
			c1.5281677,0,2.4380188,0.7377014,3.3021851,1.8478394l12.2603455,16.0156708v-14.8248138
			c0-1.7248688,1.4051514-3.1195374,3.1371155-3.1195374c1.7318726,0,3.1370544,1.3946686,3.1370544,3.1195374v22.8730774
			c0,1.7670441-1.4051819,3.1617126-3.1792603,3.1617126h-0.2072144c-1.5246582,0-2.4345398-0.7377472-3.3022156-1.8478394
			l-12.7099915-16.5883179v15.3973999c0,1.7248688-1.4052124,3.1230774-3.1406555,3.1230774
			c-1.7318726,0-3.1370544-1.3982086-3.1370544-3.1230774V226.7727203z"/>
		<path class="st0" d="M381.3849792,226.6901703c0-1.7670593,1.4051514-3.1616669,3.1792297-3.1616669
			s3.1757812,1.3946075,3.1757812,3.1616669v22.9152069c0,1.7670441-1.4017029,3.1617126-3.1757812,3.1617126
			s-3.1792297-1.3946686-3.1792297-3.1617126V226.6901703z"/>
		<path class="st0" d="M426.8317871,238.2303467v-0.08078c0-4.9287262-3.6324158-9.0354309-8.7508545-9.0354309
			c-5.1184082,0-8.6700439,4.0223846-8.6700439,8.9511108v0.0843201c0,4.9251862,3.6359558,9.0318909,8.754364,9.0318909
			C423.2836914,247.1814575,426.8317871,243.1590729,426.8317871,238.2303467 M402.7677917,238.2303467v-0.08078
			c0-8.1747589,6.4779968-14.8670044,15.3974609-14.8670044c8.9159546,0,15.3130798,6.6114655,15.3130798,14.7826843v0.0843201
			c0,8.1711731-6.4814453,14.8634033-15.3973999,14.8634033C409.1650085,253.01297,402.7677917,246.4015656,402.7677917,238.2303467
			"/>
		<path class="st0" d="M458.5414124,237.7395477c3.0949097,0,4.868988-1.6440277,4.868988-4.0679932v-0.0808411
			c0-2.7119904-1.8969727-4.1066589-4.9954529-4.1066589h-6.3128357v8.2554932H458.5414124z M445.7436218,226.9371185
			c0-1.7669983,1.4051819-3.1616669,3.1792603-3.1616669h10.029541c3.6746216,0,6.5236206,1.0257721,8.4206543,2.9157867
			c1.6089172,1.6018982,2.4766541,3.8607788,2.4766541,6.5692749v0.0843201c0,4.5142059-2.2694092,7.3070221-5.7753906,8.7473602
			l4.4158325,5.3362122c0.6182861,0.779892,1.0293274,1.4367981,1.0293274,2.4239655
			c0,1.7635193-1.4860229,2.915741-3.0141602,2.915741c-1.4402771,0-2.392334-0.6990509-3.1335754-1.644043l-6.1933899-7.8023682
			h-5.0762634v6.2847443c0,1.7635193-1.4016724,3.1616669-3.1792297,3.1616669
			c-1.7740784,0-3.1792603-1.3981476-3.1792603-3.1616669V226.9371185z"/>
	</g>
	<path class="st1" d="M186.7573853,97.8599701c-13.0960693,7.7976837-26.2588806,15.3985748-38.145874,24.2675018
		c-11.8519135,8.8613892-22.5967865,18.806076-30.4600754,30.4710999
		c-8.085022,11.4228973-13.1733551,24.2951355-14.5874329,37.3321075
		c-1.437233,13.0505219,0.7406311,26.2141876,5.7374802,38.3979492
		c10.0521622,24.4390106,30.3816528,44.72258,53.9671631,56.9366608l4.4903259,2.1685791l4.8544464,2.0968323
		c3.2727661,1.3492432,6.4336243,2.9517212,9.7861786,4.1048584l9.954483,3.6829834l10.1486969,3.1309814
		c13.594574,3.9642029,27.5110779,6.9039917,41.6346283,8.7129517c56.65065,7.1610718,115.4041595-2.0720215,171.2290802-20.4714661
		c53.3041382-17.7095337,104.3089905-43.4989014,152.5527039-75.3846436
		c2.4315186-1.6070557,2.6652832,0.1426544,0.3054199,2.5979309
		c-18.7963867,19.5565338-39.9088135,37.0228424-62.3201294,52.7230225
		c-25.2740479,17.6443176-52.5363464,32.6220093-81.1317749,44.9299927
		c-28.6669617,12.115387-58.7915649,21.3991699-89.9232483,26.6615295
		c-31.0826111,5.4131775-63.2360535,6.411377-95.0558472,2.464386c-15.8792877-2.1973572-31.650589-5.5708923-47.0350494-10.348999
		l-11.4453735-3.875061l-11.2263947-4.4877625c-3.7666626-1.4292603-7.3439331-3.3208313-11.0186462-4.9650879
		c-1.8325348-0.8611755-3.6375732-1.6760864-5.4747009-2.6081238l-5.6035614-3.0239258
		c-14.7133179-8.4275208-27.9717407-19.2138367-38.8823853-32.1112976
		c-10.962471-12.8179321-19.6585693-27.7588348-24.7918472-44.1217041
		c-5.1289215-16.2997742-6.3921204-34.2062225-2.5472641-51.0130768
		c3.7130127-16.8423615,12.3832016-32.071106,23.5692368-43.9441223
		c11.19841-11.910675,24.4666977-21.1298218,38.4123306-28.0070496
		C157.7070465,107.2386017,172.1637726,102.2388077,186.7573853,97.8599701z"/>
	<g>
		<g>
			<g>
				<path class="st2" d="M247.7431183,232.0978088c0,6.2207794-0.8562622,14.1575012-2.5722198,19.9484253
					c-34.5323181-2.3590088-72.9298553-3.0055084-89.8727722-6.4374084l-5.1478729-0.8562622l1.9291687-17.5894165
					c3.2187042-29.3844604,5.577713-50.405777,6.2207642-63.2737274l4.8418274-105.6086884
					c6.0041199-1.7159538,9.8658752-2.1458015,12.8679504-2.1458015c3.4319153,0,8.1499329,0.8562584,14.1575012,2.7888565
					l-0.4298553,10.5089455c0,1.5027466,0,3.0020599-0.2132111,4.7180176l-4.198761,91.0247726
					c-0.6430511,12.4415436-1.7159576,24.44133-4.9346619,54.0424347
					c21.2345276,1.2861176,41.3961639,2.359024,67.3521423,4.5048218
					C247.9563293,225.438736,247.7431183,229.7388,247.7431183,232.0978088z"/>
			</g>
		</g>
		<g>
			<path class="st2" d="M278.6784668,203.8050842c-1.2861023-9.0096283-3.6451111-21.2345276-4.5013733-26.5990448
				c-8.1533813,12.8713989-21.6643677,18.2324677-32.819809,18.2324677c-20.3748322,0-30.4573669-13.0845947-30.4573669-39.680191
				c0-12.8713989,2.5722198-36.4649353,4.2916107-58.1293106c10.938797,0,19.731781,1.0728989,26.1657562,2.7888565
				c-1.4993134,22.7372818-2.7888641,40.9697418-2.7888641,48.2634125c0,13.7276611,2.5756683,20.1616364,9.2228394,20.8046875
				c13.301239-4.2916107,17.5894165-8.5797882,20.808136-25.096283c1.7159424-9.4360504,1.9291382-29.6011124,2.1457825-35.6052399
				c5.1478882-0.8596954,10.2957458-1.7159576,13.0845947-1.7159576c3.4319153,0,7.7200928,1.0729065,13.297821,3.0020676
				c-0.2166443,2.5722122-0.4298706,8.1499329-0.4298706,10.7255859c0,22.3074265,1.9291687,51.0488358,7.2936707,78.2909317
				C298.4136963,201.6592865,294.1255188,203.1620331,278.6784668,203.8050842z"/>
			<path class="st2" d="M335.3153381,211.0987549c-2.5756531,0-5.1478577-0.2166443-7.0804749-0.6430511
				c-0.2131958-2.1457977,0-9.0096283,0.2166443-17.8060455c0.2132263-10.2957458,0-46.3308258-0.8596802-83.6520157
				c-0.8562622-31.3170547-2.145813-40.6155472-4.0749817-58.6348038c0-4.0749664-1.2861023-9.0096321-2.3590088-12.2248993
				c6.0041504-2.3624496,11.5818481-3.218708,18.0158386-3.218708c0.4298401,0,9.8693237,0.8562584,14.5873413,4.2881699
				c-0.4298401,4.9346657-0.8597107,9.6526833-1.0729065,13.944294c-0.6430359,13.0845947-0.6430359,21.7400284,0,55.6327438
				c0.4298401,29.3844604,1.2861023,60.9147339,2.3590088,84.2950592
				c0.4298401,6.8638306,1.0729065,12.2248993,1.5027466,15.6568146
				C353.1179504,209.8092194,343.2520752,211.0987549,335.3153381,211.0987549z"/>
			<path class="st2" d="M440.342865,203.8050842c-1.2861023-9.0096283-3.6451111-21.2345276-4.5013733-26.5990448
				c-8.1533813,12.8713989-21.6643677,18.2324677-32.8198242,18.2324677c-20.3748169,0-30.4573364-13.0845947-30.4573364-39.680191
				c0-12.8713989,2.5722046-36.4649353,4.2915955-58.1293106c10.9387817,0,19.731781,1.0728989,26.165741,2.7888565
				c-1.4992981,22.7372818-2.7888489,40.9697418-2.7888489,48.2634125c0,13.7276611,2.5756531,20.1616364,9.2228394,20.8046875
				c13.301239-4.2916107,17.5894165-8.5797882,20.8081055-25.096283c1.7159729-9.4360504,1.9291687-29.6011124,2.145813-35.6052399
				c5.1478882-0.8596954,10.2957458-1.7159576,13.0845947-1.7159576c3.4319153,0,7.7200928,1.0729065,13.297821,3.0020676
				c-0.2166443,2.5722122-0.4298706,8.1499329-0.4298706,10.7255859c0,22.3074265,1.9291687,51.0488358,7.2936707,78.2909317
				C460.0780945,201.6592865,455.789917,203.1620331,440.342865,203.8050842z"/>
		</g>
	</g>
	<path class="st3" d="M578.5427246,200.8963318l-40.4348145,85.0050049
		c-0.2236328,0.4702148-0.8571167,0.5547791-1.1962891,0.1596985l-49.7130432-57.9089813
		c-0.3391724-0.3950958-0.159668-1.0084534,0.3389893-1.1583405l90.1478577-27.0960388
		C578.2833252,199.7179565,578.8109131,200.3325195,578.5427246,200.8963318z"/>
	<polygon class="st4" points="522.5736694,269.3592529 573.102417,203.2940674 501.4911499,244.8009644 	"/>
</g>
</svg>
