<svg xmlns="http://www.w3.org/2000/svg" xmlns:xlink="http://www.w3.org/1999/xlink" viewBox="0 0 1372.1 261.4"><defs><style>.cls-1{fill:#000083;}.cls-2{fill:url(#linear-gradient);}.cls-3{fill:url(#linear-gradient-2);}.cls-4{fill:#22b5f0;}.cls-5{fill:url(#linear-gradient-3);}.cls-6{fill:url(#linear-gradient-4);}.cls-7{fill:url(#linear-gradient-5);}.cls-8{fill:#95bf47;}.cls-9{fill:#5e8e3e;}.cls-10{fill:#fff;}</style><linearGradient id="linear-gradient" x1="79.58" y1="193.99" x2="23.41" y2="64.42" gradientUnits="userSpaceOnUse"><stop offset="0" stop-color="#000083"/><stop offset="1" stop-color="#22b5f0"/></linearGradient><linearGradient id="linear-gradient-2" x1="112.05" y1="205.19" x2="51.65" y2="61.9" gradientUnits="userSpaceOnUse"><stop offset="0" stop-color="#000083"/><stop offset="0.08" stop-color="#091c95"/><stop offset="0.25" stop-color="#1850b5"/><stop offset="0.42" stop-color="#267bcf"/><stop offset="0.58" stop-color="#309de4"/><stop offset="0.74" stop-color="#37b5f3"/><stop offset="0.88" stop-color="#3bc3fc"/><stop offset="1" stop-color="#3dc8ff"/></linearGradient><linearGradient id="linear-gradient-3" x1="168.42" y1="176.48" x2="72.78" y2="71.89" gradientUnits="userSpaceOnUse"><stop offset="0" stop-color="#2083e6"/><stop offset="0.04" stop-color="#2488e8"/><stop offset="0.39" stop-color="#44b0f4"/><stop offset="0.67" stop-color="#58c9fc"/><stop offset="0.83" stop-color="#5fd2ff"/></linearGradient><linearGradient id="linear-gradient-4" x1="146.24" y1="58.75" x2="91.99" y2="58.75" gradientUnits="userSpaceOnUse"><stop offset="0" stop-color="#099cd6"/><stop offset="0.05" stop-color="#0ea1db"/><stop offset="0.21" stop-color="#19ace7"/><stop offset="0.43" stop-color="#20b3ee"/><stop offset="1" stop-color="#22b5f0"/></linearGradient><linearGradient id="linear-gradient-5" x1="88.87" y1="70.78" x2="145.78" y2="70.78" gradientUnits="userSpaceOnUse"><stop offset="0" stop-color="#3dc8ff"/><stop offset="0.4" stop-color="#36c3fb"/><stop offset="0.96" stop-color="#23b6f1"/><stop offset="1" stop-color="#22b5f0"/></linearGradient></defs><g id="Logo"><path class="cls-1" d="M163.5,172.2l15-100.3a4.5,4.5,0,0,1,3.1-3.4l30.1-8.7a2.8,2.8,0,0,1,3.6,3.1L200.2,163.5c-.6,4.8,1.3,6.8,6,6.8a43,43,0,0,0,4.6-.4,3,3,0,0,1,3.5,3.4l-3.1,20.6a5,5,0,0,1-3.9,4.2,67.9,67.9,0,0,1-15.7,1.9C170.7,200,160.7,190.3,163.5,172.2Zm184.5,0L363,71.9a4.5,4.5,0,0,1,3.1-3.4l30.1-8.7a2.8,2.8,0,0,1,3.6,3.1L384.7,163.5c-.6,4.8,1.3,6.8,6,6.8a43,43,0,0,0,4.6-.4,3,3,0,0,1,3.5,3.4l-3.1,20.6a5,5,0,0,1-3.9,4.2,67.9,67.9,0,0,1-15.7,1.9C355.2,200,345.2,190.3,348,172.2Zm-7.7,1-3,21a4.6,4.6,0,0,1-3.6,3.8,69.7,69.7,0,0,1-15.9,2c-13.6,0-22.2-4.5-25.7-12-8.1,7.1-20.4,12-33.8,12-25.3,0-39.2-16.9-35.6-41.8l8.2-55.3a3,3,0,0,1,3-2.6h29.3a3.1,3.1,0,0,1,3,3.5l-7.1,47.8c-1.8,11.3,3.1,18.3,13.6,18.3s18.3-6.6,19.8-17.7l7.4-49.3a3,3,0,0,1,3-2.6h29.2a3,3,0,0,1,3,3.5l-8.8,59.7c-.8,4.6,1.2,6.8,6,6.8a24.7,24.7,0,0,0,4.4-.5A3.1,3.1,0,0,1,340.3,173.2Zm184.7,0-3.2,22a3.1,3.1,0,0,1-2.3,2.6,70.7,70.7,0,0,1-17,2.2c-13.6,0-22.2-4.5-25.7-12-8.1,7.1-20.4,12-33.8,12-25.3,0-39.3-16.9-35.6-41.8l8.2-55.3a3,3,0,0,1,3-2.6h29.2a3,3,0,0,1,3,3.5l-7,47.8c-1.8,11.3,3.1,18.3,13.6,18.3s18.2-6.6,19.8-17.7l7.4-49.3a3,3,0,0,1,3-2.6h29.2a3,3,0,0,1,3,3.5L511,163.5c-.8,4.6,1.2,6.8,6,6.8a24.7,24.7,0,0,0,4.4-.5A3.1,3.1,0,0,1,525,173.2ZM862.8,98c24.4,0,36.3,14.9,37.1,35.2a56.1,56.1,0,0,1-1.7,14.8,2.2,2.2,0,0,1-2.1,1.7h-73a33.5,33.5,0,0,0-.4,8.3c.7,16.6,11.7,30.2,32.4,30.2,13.5,0,24.6-6.9,29.1-10.1a2.2,2.2,0,0,1,3.3.9l2.9,6.7a2.2,2.2,0,0,1-.7,2.6c-4.3,3.1-17.6,11.7-34.4,11.7-26.7,0-45.3-16.4-46.3-41C807.6,127.2,830.1,98,862.8,98Zm23.3,40.9a43.5,43.5,0,0,0,.2-6.8c-.6-15.5-10.4-23-23-23-16.3,0-32.1,10.6-38.2,29.8Zm23.7,40a2.2,2.2,0,0,1,3.1-.2,40.8,40.8,0,0,0,26.6,9.5c10.6,0,22.7-6,22.2-17.8-.8-17.6-44.8-15.3-46-42.8-.8-19.3,17.1-29.6,34.5-29.6s25.5,6.4,29,9.3a2.2,2.2,0,0,1,.3,3l-4.3,5.8a2.2,2.2,0,0,1-3.1.4c-3-2.4-10.1-6.7-21.5-6.7-9.9,0-22.5,4.9-21.9,17.4.8,17.8,45,15.3,46.2,43.2.7,17.2-15.4,29.6-34.7,29.6s-31-9-34.9-12.6a2.2,2.2,0,0,1-.2-3.1Zm79.1,0a2.2,2.2,0,0,1,3.1-.2,40.5,40.5,0,0,0,26.5,9.5c10.7,0,22.8-6,22.3-17.8-.8-17.6-44.8-15.3-46-42.8-.8-19.3,17.1-29.6,34.5-29.6s25.4,6.4,28.9,9.3a2.2,2.2,0,0,1,.4,3l-4.4,5.8a2.2,2.2,0,0,1-3.1.4c-3-2.4-10.1-6.7-21.5-6.7-9.8,0-22.4,4.9-21.8,17.4.7,17.8,44.9,15.3,46.1,43.2.8,17.2-15.3,29.6-34.7,29.6s-30.9-9-34.9-12.6a2.3,2.3,0,0,1-.1-3.1ZM743.2,137.1c-1-24-14.7-39.1-37.7-39.1-16.3,0-28,9.2-34.3,19.6l2.1-14.7a2.1,2.1,0,0,0-2.1-2.5H663a2.2,2.2,0,0,0-2.2,1.8L641.1,233.9a2.2,2.2,0,0,0,2.2,2.5h8.5a2.2,2.2,0,0,0,2.2-1.9l7.9-54c5,13.1,17.3,19.5,31.4,19.5C720.2,200,744.8,174.3,743.2,137.1Zm-51.6,51.1c-16.6,0-24.9-12.8-25.6-28.1-1-24,14.1-50.1,37.9-50.1,15.5,0,25,10.7,25.8,28.1C731.1,169.4,710.6,188.2,691.6,188.2Zm118-88.8c-15.4,0-26.9,7.8-33.1,21l2.6-17.5a2.1,2.1,0,0,0-2.2-2.5h-8.5a2.2,2.2,0,0,0-2.2,1.8L752,197.4a2.2,2.2,0,0,0,2.1,2.5h8.8a2.1,2.1,0,0,0,2.1-1.8l6-40.8c3.2-21.1,16.7-44.8,37.6-44.8l2.8.2a2.2,2.2,0,0,0,2.4-1.9l1.3-8.7a2.2,2.2,0,0,0-1.9-2.5Zm-166.8,1.3H632.6a2.1,2.1,0,0,0-1.7.8L602,136.3l-19.1-34.5a2.1,2.1,0,0,0-1.9-1.1h-9.7a2.1,2.1,0,0,0-1.9,3.2l23.8,42.8-41,49.7a2.1,2.1,0,0,0,1.7,3.5h10a2.1,2.1,0,0,0,1.6-.8l34.2-41,22.8,40.7a2.1,2.1,0,0,0,1.9,1.1h9.1a2.1,2.1,0,0,0,1.9-3.2l-26.9-48.9,36-43.6A2.2,2.2,0,0,0,642.8,100.7Z"/><path class="cls-2" d="M123.5,198.8C108.8,162,62.1,151.6,53,149.9a1.6,1.6,0,0,1-1.3-1.9L64.9,60.1a165.1,165.1,0,0,0-22.3-.7,1.6,1.6,0,0,0-1.5,1.4L25,167.5a1.7,1.7,0,0,0,1.7,1.9c11.6-.3,71.9-.3,89.5,29a3.3,3.3,0,0,0,3.7,1.5Z"/><path class="cls-3" d="M130,195c-3.7-23.5-31.3-48.5-31.3-48.5-8.2-10-1.3-23.9,2.1-29.5a1.7,1.7,0,0,0-1.3-2.5c-5.3-.4-15.9-2.7-15.9-14.8a16.3,16.3,0,0,1,.3-3.1l5-33.1h0Q81.1,62,73.6,61.1h0l-8.7-1h0L51.7,148a1.6,1.6,0,0,0,1.3,1.9c9.1,1.7,55.8,12.1,70.5,48.9l4.1-1.2A3.2,3.2,0,0,0,130,195l.5-3.7C130.2,193.7,130,195,130,195Z"/><path class="cls-4" d="M73.6,61.1h0q7.5.9,15.3,2.4h0L92,42.7a109.8,109.8,0,0,0-22.6-3.1A1.6,1.6,0,0,0,67.8,41L64.9,60.1h0Z"/><path class="cls-5" d="M144.5,98.8C147.4,80.3,118,69,88.9,63.5l-5,33.1a16.3,16.3,0,0,0-.3,3.1c0,12.1,10.6,14.4,15.9,14.8a1.7,1.7,0,0,1,1.3,2.5c-3.4,5.6-10.3,19.5-2.1,29.5,0,0,27.6,25,31.3,48.5,0,0,7-46.2,15.4-102.5Z"/><path class="cls-6" d="M145.4,92.5c7.6-50.4-39.2-65-48.9-67.4a1.6,1.6,0,0,0-2.1,1.3L92,42.7C119.2,49.2,149.4,65.8,145.4,92.5Z"/><path class="cls-7" d="M92,42.7,88.9,63.5h0C118,69,147.4,80.3,144.5,98.8l.9-6.3C149.4,65.8,119.2,49.2,92,42.7Z"/></g><g id="Layer_1" data-name="Layer 1"><path class="cls-8" d="M1324,66.1a1.9,1.9,0,0,0-1.8-1.7l-17-1.2S1294,52,1292.6,50.8s-3.7-.8-4.6-.5l-6.2,1.9c-3.8-10.9-10.4-20.9-22.1-20.9h-1c-3.4-4.4-7.5-6.3-11.1-6.3-27.3,0-40.4,34.1-44.5,51.5l-19,5.9c-5.9,1.9-6.1,2-6.8,7.6s-16.1,123.8-16.1,123.8l120.6,22.6,65.3-14.1S1324.2,67.3,1324,66.1Zm-49-11.9-10.2,3.2V55.2a54.8,54.8,0,0,0-2.4-16.4C1268.5,39.4,1272.4,46.2,1275,54.2Zm-20.1-14.3c1.7,4.3,2.7,10.2,2.7,18.4v1.2l-21,6.4C1240.7,50.5,1248.3,42.8,1254.9,39.9Zm-8.1-7.6a5.5,5.5,0,0,1,3.5,1.2c-8.6,4.1-18.1,14.4-22,35.1-5.8,1.9-11.4,3.6-16.7,5.1C1216.2,57.9,1227.2,32.3,1246.8,32.3Z"/><path class="cls-9" d="M1322.2,64.4l-17-1.2S1294,52,1292.6,50.8a2.7,2.7,0,0,0-1.7-.8l-9.1,186.4,65.3-14.1s-22.9-155-23.1-156A2.3,2.3,0,0,0,1322.2,64.4Z"/><path class="cls-10" d="M1259.5,100.6l-8,23.9a37.6,37.6,0,0,0-15.6-3.7c-12.7,0-13.2,8-13.2,10,0,10.9,28.5,15.1,28.5,40.8,0,20.2-12.8,33.1-30.1,33.1-20.7,0-31.2-12.9-31.2-12.9l5.6-18.4s10.9,9.4,20,9.4a8.2,8.2,0,0,0,8.5-8.2c0-14.3-23.4-14.9-23.4-38.4,0-19.7,14.1-38.9,42.8-38.9C1254.1,97.3,1259.5,100.6,1259.5,100.6Z"/></g></svg>