<?xml version="1.0" standalone="no"?>
<!DOCTYPE svg PUBLIC "-//W3C//DTD SVG 1.1//EN" "http://www.w3.org/Graphics/SVG/1.1/DTD/svg11.dtd" >
<svg xmlns="http://www.w3.org/2000/svg">
<metadata>Generated by IcoMoon</metadata>
<defs>
<font id="help-center-icons" horiz-adv-x="1024">
<font-face units-per-em="1024" ascent="960" descent="-64" />
<missing-glyph horiz-adv-x="1024" />
<glyph unicode="&#x20;" horiz-adv-x="512" d="" />
<glyph unicode="&#xe900;" glyph-name="knowledge-base-article" d="M969 854.6c-9.6 9.4-22.2 14.6-35.6 14.6-0.2 0-0.2 0-0.4 0-98.4-0.8-195.8-12.8-274.4-33.8-66.4-17.6-115.4-40.2-146.6-67-31.2 26.8-80.2 49.4-146.6 67-78.6 21-176 33-274.4 33.8-0.2 0-0.2 0-0.4 0-13.4 0-26-5.2-35.6-14.6-9.6-9.6-15-22.4-15-36v-626.6c0-27.6 22.6-50.4 50.2-50.6 91.8-0.8 182.2-11.8 254.6-31 75.4-20.2 114-44.6 124.8-61 9.4-14.2 25.2-22.6 42.2-22.6s32.8 8.4 42.2 22.6c10.8 16.2 49.4 40.8 124.8 61 72.4 19.2 162.8 30.4 254.6 31 27.8 0.2 50.2 23 50.2 50.6v626.6c0.4 13.6-5 26.4-14.6 36zM488 741.8c0 0 0 0 0 0s0 0 0 0 0 0 0 0zM365.4 187.4c-71 19-157.2 30.6-245.6 33.2v568.4c81.6-2.6 160.6-13.2 225.2-30.4 75.4-20.2 114-44.6 124.8-61 0.8-1.2 1.6-2.4 2.6-3.4 0-0.8-0.2-1.4-0.2-2.2v-544.8c-28.2 15.2-64 28.6-106.8 40.2zM904.2 220.6c-88.4-2.6-174.8-14.2-245.8-33.2-42.8-11.4-78.4-24.8-106.8-40.2v544.8c0 0.8 0 1.4-0.2 2.2 0.8 1.2 1.8 2.2 2.6 3.4 10.8 16.2 49.4 40.8 124.8 61 64.6 17.2 143.6 27.8 225.2 30.4v-568.4zM413.8 582c-2.6 0-5.2 0.4-7.8 1.4-62.4 23.8-150.8 40.6-249 47.4-12.2 0.8-21.2 11.4-20.4 23.4 0.8 12.2 11.4 21.2 23.4 20.4 102.4-7 195.4-24.8 261.8-50.2 11.4-4.4 17-17 12.6-28.4-3.4-8.6-11.8-14-20.6-14zM413.8 464.2c-2.6 0-5.2 0.4-7.8 1.4-62.4 23.8-150.8 40.6-249 47.4-12.2 0.8-21.2 11.4-20.4 23.4 0.8 12.2 11.4 21.2 23.4 20.4 102.4-7 195.4-24.8 261.8-50.2 11.4-4.4 17-17 12.6-28.4-3.4-8.6-11.8-14-20.6-14zM413.8 346.2c-2.6 0-5.2 0.4-7.8 1.4-62.4 23.8-150.8 40.6-249 47.4-12.2 0.8-21.2 11.4-20.4 23.4 0.8 12.2 11.4 21.2 23.4 20.4 102.4-7 195.4-24.8 261.8-50.2 11.4-4.4 17-17 12.6-28.4-3.4-8.6-11.8-14-20.6-14zM413.8 228.4c-2.6 0-5.2 0.4-7.8 1.4-62.4 23.8-150.8 40.6-249 47.4-12.2 0.8-21.2 11.4-20.4 23.4 0.8 12.2 11.4 21.4 23.4 20.4 102.4-7 195.4-24.8 261.8-50.2 11.4-4.4 17-17 12.6-28.4-3.4-8.6-11.8-14-20.6-14zM610.2 582c-8.8 0-17.2 5.4-20.6 14.2-4.4 11.4 1.4 24 12.6 28.4 66.2 25.4 159.2 43.2 261.8 50.2 12 0.8 22.6-8.4 23.4-20.4 0.8-12.2-8.4-22.6-20.4-23.4-98.2-6.6-186.6-23.4-249-47.4-2.6-1.2-5.2-1.6-7.8-1.6zM610.2 464.2c-8.8 0-17.2 5.4-20.6 14.2-4.4 11.4 1.4 24 12.6 28.4 66.2 25.4 159.2 43.2 261.8 50.2 12 0.8 22.6-8.4 23.4-20.4 0.8-12.2-8.4-22.6-20.4-23.4-98.2-6.6-186.6-23.4-249-47.4-2.6-1.2-5.2-1.6-7.8-1.6zM610.2 346.2c-8.8 0-17.2 5.4-20.6 14.2-4.4 11.4 1.4 24 12.6 28.4 66.2 25.4 159.2 43.2 261.8 50.2 12 0.8 22.6-8.4 23.4-20.4s-8.4-22.6-20.4-23.4c-98.2-6.6-186.6-23.4-249-47.4-2.6-1-5.2-1.6-7.8-1.6zM610.2 228.4c-8.8 0-17.2 5.4-20.6 14.2-4.4 11.4 1.4 24 12.6 28.4 66.2 25.4 159.2 43.2 261.8 50.2 12 0.8 22.6-8.4 23.4-20.4 0.8-12.2-8.4-22.6-20.4-23.4-98.2-6.6-186.6-23.4-249-47.4-2.6-1-5.2-1.6-7.8-1.6z" />
<glyph unicode="&#xe901;" glyph-name="knowledge-base-video" d="M814.8 105.4h-605.6c-94.4 0-171.2 76.8-171.2 171.2v342.8c0 94.4 76.8 171.2 171.2 171.2h605.8c94.4 0 171.2-76.8 171.2-171.2v-342.6c-0.2-94.6-77-171.4-171.4-171.4zM209.2 706.6c-48 0-87.2-39.2-87.2-87.2v-342.6c0-48 39-87.2 87.2-87.2h605.8c48 0 87.2 39.2 87.2 87.2v342.6c0 48-39 87.2-87.2 87.2h-605.8zM418 278c-3.6 0-7.2 0.8-10.6 2.8-7 3.8-11.4 11.2-11.4 19.2v325.4c0 8 4.4 15.4 11.4 19.2s15.6 3.6 22.4-0.8l254.2-162.6c6.4-4 10.2-11 10.2-18.6s-3.8-14.4-10.2-18.6l-254-162.6c-3.6-2.2-7.8-3.4-12-3.4zM440 585.2v-245l191.4 122.4-191.4 122.6z" />
<glyph unicode="&#xe902;" glyph-name="ticket-status-open" d="M873.42 459.468c-25.67 28.532-54.874 57.102-86.944 83.68-89.554 74.242-183.022 118.188-274.476 118.188s-184.92-43.946-274.476-118.188c-32.070-26.578-61.274-55.148-86.946-83.68-2.652-2.928-5.961-6.66-9.238-10.421l-0.894-1.047c3.1-3.58 6.484-7.406 10.132-11.468 25.672-28.532 54.876-57.102 86.946-83.68 89.554-74.242 183.022-118.188 274.476-118.188s184.92 43.946 274.476 118.188c32.070 26.578 61.274 55.148 86.946 83.68 2.652 2.928 5.961 6.66 9.238 10.421l0.894 1.047c-4.171 4.808-7.48 8.54-10.821 12.244l0.689-0.776zM972.868 422.484c-6.712-8.992-18.892-23.992-36.008-43.016-28.298-31.468-60.43-62.898-95.922-92.32-103.46-85.758-214.188-137.812-328.938-137.812s-225.476 52.054-328.938 137.812c-35.492 29.422-67.622 60.852-95.92 92.32-17.12 19.024-29.3 34.024-36.010 43.016-5.287 7.027-8.467 15.9-8.467 25.516s3.18 18.489 8.546 25.625l-0.079-0.109c6.712 8.992 18.892 23.992 36.008 43.016 28.3 31.468 60.43 62.898 95.922 92.32 103.46 85.758 214.188 137.812 328.938 137.812s225.476-52.054 328.938-137.812c35.492-29.422 67.624-60.852 95.92-92.32 17.12-19.024 29.3-34.024 36.010-43.016 5.287-7.027 8.467-15.9 8.467-25.516s-3.18-18.489-8.546-25.625l0.079 0.109zM618.664 448c0 58.93-47.75 106.664-106.664 106.664s-106.664-47.734-106.664-106.664 47.75-106.664 106.664-106.664 106.664 47.734 106.664 106.664zM661.336 448c0-82.492-66.86-149.336-149.336-149.336s-149.336 66.844-149.336 149.336c0 82.492 66.86 149.336 149.336 149.336s149.336-66.844 149.336-149.336zM512 469.336c-11.78 0-21.336 9.546-21.336 21.328 0 11.78 9.554 21.336 21.336 21.336 35.336 0 64-28.664 64-64s-28.664-64-64-64-64 28.664-64 64c0 11.78 9.554 21.336 21.336 21.336 11.78 0 21.328-9.554 21.328-21.336 0-11.774 9.562-21.336 21.336-21.336s21.336 9.562 21.336 21.336-9.562 21.336-21.336 21.336z" />
<glyph unicode="&#xe903;" glyph-name="ticket-status-pending" d="M894.2 485.8l42.4 42.4c16.6 16.6 43.6 16.6 60.4 0 16.6-16.6 16.6-43.6 0-60.4l-120.6-120.6c-16.6-16.6-43.6-16.6-60.4 0l-120.6 120.6c-16.6 16.6-16.6 43.6 0 60.4s43.6 16.6 60.4 0l54-54c-13.2 152.8-141.4 272.6-297.6 272.6-77 0-149.4-29.2-204.6-81-17.2-16.2-44.2-15.2-60.4 1.8-16.2 17.2-15.4 44.2 1.8 60.4 70.8 66.4 164 104 263 104 199.4 0 363.2-151.8 382.2-346.2zM132.6 390.2l-42.4-42.4c-16.6-16.6-43.6-16.6-60.4 0-16.6 16.6-16.6 43.6 0 60.4l120.6 120.6c16.6 16.6 43.6 16.6 60.4 0l120.6-120.6c16.6-16.6 16.6-43.6 0-60.4s-43.6-16.6-60.4 0l-54 54c13.2-152.8 141.4-272.6 297.6-272.6 77 0 149.4 29.2 204.6 81 17.2 16.2 44.2 15.2 60.4-1.8 16.2-17.2 15.4-44.2-1.8-60.4-70.8-66.4-164-104.2-263-104.2-199.4 0.2-363.4 152-382.2 346.4z" />
<glyph unicode="&#xe904;" glyph-name="ticket-status-closed" d="M170.664 960h682.672c47.124 0 85.328-38.204 85.328-85.336v-853.328c0-47.132-38.204-85.336-85.328-85.336h-682.672c-47.124 0-85.328 38.204-85.328 85.336v853.328c0 47.132 38.204 85.336 85.328 85.336zM170.664 874.664v-853.328h682.672v853.328zM170.664 469.336h682.672v-42.672h-682.672zM682.664 277.336c0 23.562 19.1 42.664 42.672 42.664 23.562 0 42.664-19.1 42.664-42.664 0-68.46-44.656-128-106.664-128h-298.672c-62.008 0-106.664 59.54-106.664 128 0 23.562 19.1 42.664 42.664 42.664 23.57 0 42.672-19.1 42.672-42.664 0-25.796 12.648-42.672 21.328-42.672h298.672c8.68 0 21.328 16.876 21.328 42.672zM682.664 746.664c0 23.57 19.1 42.672 42.672 42.672 23.562 0 42.664-19.1 42.664-42.672 0-68.46-44.656-128-106.664-128h-298.672c-62.008 0-106.664 59.54-106.664 128 0 23.57 19.1 42.672 42.664 42.672 23.57 0 42.672-19.1 42.672-42.672 0-25.788 12.648-42.664 21.328-42.664h298.672c8.68 0 21.328 16.876 21.328 42.664z" />
<glyph unicode="&#xe905;" glyph-name="navigation-signed-in" d="M443.242 333.032c40.664 116.624 151.61 200.304 282.094 200.304-130.484 0-241.43-83.68-282.094-200.304-96.046 37.414-165.906 151.156-165.906 285.632 0 164.976 105.078 298.672 234.688 298.672 129.6 0 234.64-133.696 234.64-298.672 0-29.726-3.414-58.446-9.766-85.546 159.586-6.080 287.102-137.378 287.102-298.454 0-37.086-6.758-72.594-19.118-105.36 12.46-47.928 19.118-98.46 19.118-150.64 0-23.562-19.1-42.664-42.664-42.664h-938.672c-23.562 0-42.664 19.1-42.664 42.664 0 192.352 90.516 362.344 228.344 461.906 40.508-92.968 111.852-163.89 198.624-192.32zM725.336 21.336c117.82 0 213.328 95.508 213.328 213.328s-95.508 213.336-213.328 213.336c-117.82 0-213.336-95.516-213.336-213.336s95.516-213.328 213.336-213.328zM676.852 225.976l128 105.602c18.172 15 45.062 12.414 60.062-5.758 14.992-18.18 12.414-45.070-5.766-60.062l-155.148-128c-7.316-6.072-16.804-9.756-27.152-9.756s-19.836 3.684-27.222 9.813l0.070-0.057-58.18 48c-18.18 14.992-20.76 41.882-5.76 60.062 14.994 18.172 41.884 20.76 60.064 5.76z" />
<glyph unicode="&#xe906;" glyph-name="navigation-signed-out" d="M306.008 389.696c-120.688-73.36-205.908-209.188-218.938-368.36h849.86c-13.032 159.18-98.234 295-218.914 368.36-50.344-68.782-123.36-112.36-205.992-112.36-82.634 0-155.664 43.578-206.016 112.36zM759.57 464.368c157.906-94.65 264.43-277.016 264.43-485.704 0-23.562-19.1-42.664-42.664-42.664h-938.672c-23.562 0-42.664 19.1-42.664 42.664 0 208.68 106.532 391.046 264.446 485.704-19.094 46.508-29.782 99.008-29.782 154.296 0 186.586 121.618 341.336 277.36 341.336 155.734 0 277.312-154.742 277.312-341.336 0-55.288-10.68-107.788-29.766-154.296zM704 618.664c0 143.36-88.5 256-191.976 256-103.492 0-192.024-112.648-192.024-256 0-143.32 88.54-256 192.024-256 103.468 0 191.976 112.672 191.976 256z" />
<glyph unicode="&#xe907;" glyph-name="ticket-status-resolved" d="M512-21.336c-259.204 0-469.336 210.132-469.336 469.336s210.132 469.336 469.336 469.336 469.336-210.132 469.336-469.336-210.132-469.336-469.336-469.336zM400.836 277.336c9.5 0.312 18.516 4.078 25.164 10.516l333.1 315.6c12.58 13.916 11.728 34.658-1.944 47.61-13.664 12.954-35.554 13.75-50.242 1.836l-306.078-290-84.016 86.266c-14.43 11.484-35.664 10.868-49.32-1.446-13.656-12.304-15.368-32.374-3.976-46.6l111.030-112.564c6.806-6.952 16.282-11 26.282-11.218z" />
<glyph unicode="&#xe908;" glyph-name="navigation-search" d="M969.406 49.46c16.008-16.296 15.89-42.444-0.266-58.6s-42.304-16.274-58.6-0.266l-293.056 293.054c-147.57-116.398-360.288-97.6-485.156 42.876s-118.594 353.936 14.312 486.836c132.9 132.906 346.352 139.18 486.828 14.312 140.486-124.868 159.282-337.586 42.884-485.156zM128.12 561.266c0.172-149.384 121.226-270.446 270.616-270.618 149.46 0 270.618 121.164 270.618 270.618 0 149.46-121.156 270.624-270.618 270.624-149.46 0-270.616-121.164-270.616-270.624z" />
<glyph unicode="&#xe909;" glyph-name="data-upload-large" d="M469.336 686.328l-108.188-108.188c-16.664-16.656-43.672-16.656-60.336 0-16.664 16.664-16.664 43.68 0 60.344l181.016 181.016c16.664 16.664 43.68 16.664 60.344 0l181.016-181.016c16.664-16.664 16.664-43.68 0-60.344-16.664-16.656-43.672-16.656-60.336 0l-108.188 108.188v-408.992c0-23.57-19.1-42.672-42.664-42.672-23.562 0-42.664 19.1-42.664 42.672zM896 21.336h-768c-23.562 0-42.664 19.1-42.664 42.664v213.336c0 23.562 19.1 42.664 42.664 42.664 23.562 0 42.664-19.1 42.664-42.664v-170.672h682.672v170.672c0 23.562 19.1 42.664 42.664 42.664 23.562 0 42.664-19.1 42.664-42.664v-213.336c0-23.562-19.1-42.664-42.664-42.664z" />
<glyph unicode="&#xe90a;" glyph-name="arrow-down-small" d="M512 380.336l183.164 183.164c16.664 16.664 43.68 16.664 60.336 0 16.664-16.656 16.664-43.672 0-60.336l-213.328-213.336c-16.664-16.664-43.68-16.664-60.344 0l-213.328 213.336c-16.664 16.664-16.664 43.68 0 60.336 16.656 16.664 43.672 16.664 60.336 0z" />
<glyph unicode="&#xe90b;" glyph-name="arrow-down-medium" d="M512 337.672l268.5 268.5c16.656 16.664 43.672 16.664 60.336 0s16.664-43.68 0-60.344l-298.664-298.664c-16.664-16.664-43.68-16.664-60.344 0l-298.664 298.664c-16.664 16.664-16.664 43.68 0 60.344s43.68 16.664 60.336 0z" />
<glyph unicode="&#xe90c;" glyph-name="arrow-down-large" d="M512 295.008l353.828 353.828c16.664 16.664 43.68 16.664 60.344 0s16.664-43.68 0-60.336l-384-384c-16.664-16.664-43.68-16.664-60.344 0l-384 384c-16.664 16.656-16.664 43.672 0 60.336s43.68 16.664 60.344 0z" />
<glyph unicode="&#xe90d;" glyph-name="arrow-down-extrasmall" d="M512 465.672l97.828 97.828c16.664 16.664 43.68 16.664 60.344 0 16.664-16.656 16.664-43.672 0-60.336l-128-128c-16.664-16.664-43.68-16.664-60.344 0l-128 128c-16.664 16.664-16.664 43.68 0 60.336 16.664 16.664 43.68 16.664 60.344 0z" />
<glyph unicode="&#xe90e;" glyph-name="support-call" d="M662.6-54.4c-29 0-58.2 8.2-83.6 25-214.4 141.8-402.6 330-544.4 544.4-39.6 60-31.6 140.2 19.2 191l48 48c43 43 113.2 43 156.2 0l87.6-87.6c43-43.2 43-113.2 0-156.4 0 0 0 0 0 0l-11.2-11.2c68.6-81.4 146.8-159.6 228.4-228.4l11.2 11.2c20.8 20.8 48.6 32.4 78.2 32.4s57.2-11.4 78.2-32.4l87.6-87.6c43-43.2 43-113.2 0-156.2l-48-48c-29.2-29-68-44.2-107.4-44.2zM180 730.4c-14 0-28-5.4-38.6-16l-48-48c-32-32-37-82.6-12-120.4 137.6-208 320.4-390.8 528.4-528.4 37.8-25 88.4-20 120.4 12l48 48c21.2 21.2 21.2 55.8 0 77l-87.6 87.6c-10.4 10.4-24 16-38.6 16s-28.2-5.6-38.6-16l-29.2-29.2c-10.2-10.2-26.4-11-37.6-1.8-98 80.2-192 174.2-272 272-9.2 11.2-8.4 27.4 1.8 37.6l29.2 29.2c21.2 21.2 21.2 55.8 0 77.2l-87.6 87.6c-10 10.2-24 15.6-38 15.6zM326 530v0 0zM1014.4 448c0 134.2-52.2 260.4-147.2 355.4-94.8 94.8-221 147-355.2 147-15.4 0-28-12.6-28-28s12.6-28 28-28c119.2 0 231.4-46.4 315.8-130.8s130.8-196.4 130.8-315.8c0-15.4 12.6-28 28-28s27.8 12.6 27.8 28.2zM849.4 448c0 186-151.4 337.4-337.4 337.4-15.4 0-28-12.6-28-28s12.6-28 28-28c155.2 0 281.4-126.2 281.4-281.4 0-15.4 12.6-28 28-28s28 12.4 28 28zM684.4 448c0 95-77.4 172.4-172.4 172.4-15.4 0-28-12.6-28-28s12.6-28 28-28c64.2 0 116.4-52.2 116.4-116.4 0-15.4 12.6-28 28-28s28 12.4 28 28z" />
<glyph unicode="&#xe90f;" glyph-name="support-chat" d="M240.8 190.6c-3.8 0-7.8 0.8-11.4 2.4-10 4.6-16.6 14.6-16.6 25.6v138.8h-13.8c-107.4 0-194.8 87.4-194.8 194.8v166.8c0 107.6 87.6 195 195 195h417.2c107.4 0 194.8-87.4 194.8-194.8v-166.8c0-107.4-87.4-194.8-194.8-194.8h-177l-179.8-159.8c-5.4-4.8-12-7.2-18.8-7.2zM199.2 858c-76.6 0-138.8-62.2-138.8-138.8v-166.8c0-76.6 62.2-138.8 138.8-138.8h41.8c15.4 0 28-12.6 28-28v-104.6l141.2 125.4c5.2 4.6 11.8 7 18.6 7h187.8c76.6 0 138.8 62.2 138.8 138.8v166.8c0 76.6-62.2 138.8-138.8 138.8h-417.4zM835.6-15.8c10.4 4.4 17.2 14.6 17.2 25.8v97.2h34.6c73 0 132.2 59.4 132.2 132.2v83.4c0 73-59.4 132.2-132.2 132.2-15.4 0-28-12.6-28-28s12.6-28 28-28c42 0 76.2-34.2 76.2-76.2v-83.4c0-42-34.2-76.2-76.2-76.2h-62.6c-15.4 0-28-12.6-28-28v-57.6l-77.4 77.4c-5.2 5.2-12.4 8.2-19.8 8.2h-104.2c-42 0-76.2 34.2-76.2 76.2 0 15.4-12.6 28-28 28s-28-12.6-28-28c0-73 59.4-132.2 132.2-132.2h92.6l117-117c5.4-5.4 12.6-8.2 19.8-8.2 3.6 0 7.4 0.8 10.8 2.2z" />
<glyph unicode="&#xe910;" glyph-name="ticket-status-notify" d="M530.696 884.946l469.328-853.328c7.82-14.22-2.46-31.618-18.688-31.618h-938.672c-16.226 0-26.508 17.4-18.688 31.618l469.328 853.328c8.11 14.74 29.282 14.74 37.392 0zM512 100.726c23.562 0 42.664 19.102 42.664 42.672 0 23.562-19.1 42.664-42.664 42.664-23.562 0-42.664-19.1-42.664-42.664 0-23.57 19.1-42.672 42.664-42.672zM469.336 618.664v-341.328h85.328v341.328z" />
<glyph unicode="&#xe911;" glyph-name="ticket-status-reopened" d="M972.8 422.4c-5.2-7.2-14.2-18.2-26.4-32.2-15.4 18.4-38.4 29.4-63 29.4-10.8 0-21.6-2.2-31.8-6.4 7.6 7.8 14.8 15.6 21.8 23.4 3.4 3.8 6.8 7.6 10.2 11.4-3.4 3.8-6.8 7.6-10.2 11.4-7.2 8-14.8 16-22.6 24-4.8 43.6-18 86.2-39.8 125.8-8.4 15.2-17.8 29.8-28.2 43.4 19.6-13.4 38.8-28 57.8-43.8 35.6-29.6 67.8-61 96-92.4 17.2-19 29.2-34 36-43 11.4-15.2 11.4-35.8 0.2-51zM215 283.8c-21.8 40-35.2 83-39.8 127-8.4 8.6-16.6 17.4-24.4 26-3.8 4-7.2 7.8-10.2 11.4 3.4 3.8 6.8 7.6 10.2 11.4 8 8.8 16.4 17.6 25 26.4 2.2 18.8 6.2 37.6 11.6 56.2 12.2 41.8 32 80 58 113.4-21-14.2-41.6-29.8-62-46.8-35.6-29.6-67.6-61-96-92.4-17.2-19-29.2-34-36-43-11.2-15.2-11.2-35.8 0-51 6.8-9 18.8-24 36-43 28.4-31.6 60.6-63 96-92.4 18.8-15.8 38-30.2 57.4-43.6-9.6 13-18.2 26.4-25.8 40.4zM604.6 330.2c-25.4-20-57.6-32-92.4-32-82.6 0-149.4 67-149.4 149.4 0 82.6 67 149.4 149.4 149.4 74.2 0 135.8-54.2 147.4-125.2-7.4 2.8-15 4.2-23 4.2-7.2 0-14.2-1.2-20.8-3.4-11.2 47-53.4 81.8-103.8 81.8-58.8 0-106.6-47.6-106.6-106.6 0-58.8 47.6-106.6 106.6-106.6 27.6 0 52.6 10.4 71.6 27.6l21-38.6zM511.8 469.2c-11.8 0-21.4 9.6-21.4 21.4s9.6 21.4 21.4 21.4c35.4 0 64-28.6 64-64s-28.6-64-64-64-64 28.6-64 64c0 11.8 9.6 21.4 21.4 21.4s21.4-9.6 21.4-21.4c0-11.8 9.6-21.4 21.4-21.4s21.4 9.6 21.4 21.4-9.6 21.4-21.6 21.2zM920.4 357.6c-7.4 13.6-21.6 22-37 22-7 0-13.8-1.8-20-5l-70.4-38.4 7.6 25.8c22.4 76.8 13.8 157.8-24.6 228s-101.6 121.4-178.4 144c-27.6 8-56 12.2-84.6 12.2v0c-63.4 0-126.4-20.8-177.8-58.6-53.2-39-91-93.2-109.6-156.6-22.6-76.8-14-157.8 24.4-228 38.4-70.4 101.8-121.4 178.6-144 4-1.2 8-1.8 12-1.8 18.6 0 35.2 12.6 40.4 30.4 3.2 10.8 2 22.4-3.4 32.2s-14.4 17-25.2 20.2c-55.2 16.2-100.6 53-128.2 103.4s-33.8 108.6-17.6 163.8c13.4 45.4 40.6 84.4 78.6 112.4 36.8 27.2 82.2 42.2 127.8 42.2 20.4 0 41-3 60.8-8.8 55.2-16.2 100.6-53 128.2-103.4s33.8-108.6 17.6-163.8l-7.6-25.8-38.4 70.4c-7.4 13.4-21.6 21.8-37 21.8-7 0-14-1.8-20.2-5.2-20.4-11-28-36.6-17-57l87.2-159.8c5.4-9.8 14.4-17 25.2-20.2 3.8-1.2 7.8-1.8 11.8-1.8 7 0 14 1.8 20.2 5.2l159.8 87.2c20.2 11.2 27.8 36.8 16.8 57z" />
<glyph unicode="&#xe912;" glyph-name="ticket-status-processing" d="M894.2 485.8l42.4 42.4c16.6 16.6 43.6 16.6 60.4 0 16.6-16.6 16.6-43.6 0-60.4l-120.6-120.6c-16.6-16.6-43.6-16.6-60.4 0l-120.6 120.6c-16.6 16.6-16.6 43.6 0 60.4s43.6 16.6 60.4 0l54-54c-13.2 152.8-141.4 272.6-297.6 272.6-77 0-149.4-29.2-204.6-81-17.2-16.2-44.2-15.2-60.4 1.8-16.2 17.2-15.4 44.2 1.8 60.4 70.8 66.4 164 104 263 104 199.4 0 363.2-151.8 382.2-346.2zM132.6 390.2l-42.4-42.4c-16.6-16.6-43.6-16.6-60.4 0-16.6 16.6-16.6 43.6 0 60.4l120.6 120.6c16.6 16.6 43.6 16.6 60.4 0l120.6-120.6c16.6-16.6 16.6-43.6 0-60.4s-43.6-16.6-60.4 0l-54 54c13.2-152.8 141.4-272.6 297.6-272.6 77 0 149.4 29.2 204.6 81 17.2 16.2 44.2 15.2 60.4-1.8 16.2-17.2 15.4-44.2-1.8-60.4-70.8-66.4-164-104.2-263-104.2-199.4 0.2-363.4 152-382.2 346.4z" />
<glyph unicode="&#xe913;" glyph-name="social-blog" d="M317.844 299.008v404.946h87.11v-404.946zM576.016 364.374c40.444 0 61.92 34.798 61.92 69.086 0 34.29-22.022 68.072-62.468 68.072-40.398 0-61.328-33.782-61.328-68.072 0-34.288 21.478-69.086 61.876-69.086zM575.468 574.352c79.29 0 145.414-53.556 145.414-140.892 0-87.328-66.124-142.984-145.414-142.984-78.694 0-144.828 55.656-144.828 142.984 0 87.336 66.134 140.892 144.828 140.892zM145.344 364.376c40.946 0 61.92 34.288 61.92 69.084 0 34.29-20.974 68.072-61.92 68.072-38.844 0-62.976-34.852-62.976-68.58 0-34.85 24.132-68.576 62.976-68.576zM166.868 573.28c76.14 0 123.35-65.36 123.35-139.82 0-74.454-45.702-141.962-124.444-141.962-34.64 0-68.734 15.54-85.508 42.312h-1v-34.804h-79.29v404.994h86.094v-166.594h1.056c14.67 17.68 41.444 35.876 79.74 35.876zM878.6 365.992c39.344 0 63.524 31.58 63.524 68.016 0 36.438-24.68 67.508-63.524 67.508s-61.422-30.556-61.422-67.508c0-35.36 22.578-68.016 61.42-68.016zM942.624 565.804h81.35v-241.616c0-104.454-60.828-153.72-153.78-153.72-45.61 0-99.172 14.978-134.32 41.806l43.006 62.6c25.228-22.484 57.22-33.726 86.602-33.726 50.406 0 73.992 30.048 73.992 74.46v16.096h-1.554c-16.32-21.46-44.61-35.368-79.25-35.368-79.242 0-124.9 63.22-124.9 137.118 0 73.936 45.658 139.812 124.4 139.812 32.54 0 65.078-13.392 83.452-41.75h1z" />
<glyph unicode="&#xe914;" glyph-name="navigation-menu" d="M213.336 277.336h597.328c23.57 0 42.672-19.1 42.672-42.672v-42.664c0-23.562-19.1-42.664-42.672-42.664h-597.328c-23.57 0-42.672 19.1-42.672 42.664v42.664c0 23.57 19.1 42.672 42.672 42.672zM213.336 533.336h597.328c23.57 0 42.672-19.1 42.672-42.672v-42.664c0-23.562-19.1-42.664-42.672-42.664h-597.328c-23.57 0-42.672 19.1-42.672 42.664v42.664c0 23.57 19.1 42.672 42.672 42.672zM213.336 789.336h597.328c23.57 0 42.672-19.1 42.672-42.672v-42.664c0-23.562-19.1-42.664-42.672-42.664h-597.328c-23.57 0-42.672 19.1-42.672 42.664v42.664c0 23.57 19.1 42.672 42.672 42.672z" />
</font>
</defs>
</svg>
